<svg id="Layer_1" enable-background="new 0 0 512 512" height="512" viewBox="0 0 512 512" width="512" xmlns="http://www.w3.org/2000/svg"><g><g><path d="m256 512c-68.38 0-132.667-26.629-181.02-74.98-48.351-48.353-74.98-112.64-74.98-181.02s26.629-132.667 74.98-181.02c48.353-48.351 112.64-74.98 181.02-74.98s132.667 26.629 181.02 74.98c48.351 48.353 74.98 112.64 74.98 181.02s-26.629 132.667-74.98 181.02c-48.353 48.351-112.64 74.98-181.02 74.98zm0-482c-60.367 0-117.12 23.508-159.806 66.194-42.686 42.685-66.194 99.439-66.194 159.806s23.508 117.121 66.194 159.806c42.686 42.686 99.439 66.194 159.806 66.194s117.12-23.508 159.806-66.194c42.686-42.685 66.194-99.439 66.194-159.806s-23.508-117.121-66.194-159.806c-42.686-42.686-99.439-66.194-159.806-66.194z"/></g><g><path d="m353.384 189.416c-23.526 0-42.666-19.14-42.666-42.667 0-23.526 19.14-42.667 42.666-42.667s42.667 19.14 42.667 42.667c0 23.526-19.141 42.667-42.667 42.667zm0-55.334c-6.984 0-12.666 5.682-12.666 12.667s5.682 12.667 12.666 12.667 12.667-5.683 12.667-12.667-5.683-12.667-12.667-12.667z"/></g><g><path d="m397.608 338.786c-24.445 0-44.333-19.888-44.333-44.333s19.888-44.333 44.333-44.333c24.446 0 44.334 19.888 44.334 44.333s-19.887 44.333-44.334 44.333zm0-58.666c-7.903 0-14.333 6.43-14.333 14.333s6.43 14.333 14.333 14.333 14.334-6.43 14.334-14.333-6.43-14.333-14.334-14.333z"/></g><g><path d="m256 287.999c-28.673 0-52-23.327-52-52s23.327-52 52-52 52 23.327 52 52-23.327 52-52 52zm0-74c-12.131 0-22 9.869-22 22s9.869 22 22 22 22-9.869 22-22-9.869-22-22-22z"/></g><g><path d="m144.011 349.001h30v30.002h-30z"/></g><g><path d="m108 146.333h30v30.002h-30z"/></g><g><path d="m77.998 196.336h30v30.002h-30z"/></g></g></svg>