<svg id="Layer_1" enable-background="new 0 0 512.031 512.031" height="512" viewBox="0 0 512.031 512.031" width="512" xmlns="http://www.w3.org/2000/svg"><path d="m427.979 107.086c-4.584-27.756-18.185-53.223-39.003-72.652-23.794-22.205-54.83-34.434-87.393-34.434-26.057 0-51.139 7.78-72.534 22.5-17.71 12.185-31.927 28.407-41.594 47.351-2.016-.108-4.033-.163-6.044-.163-47.987 0-90.03 30.2-105.71 74.651-15.559 2.61-29.872 10.031-41.127 21.482-13.928 14.169-21.598 32.916-21.598 52.787 0 41.54 33.795 75.335 75.335 75.335h106.704l-16.754 117.082h42.15v101.006l112.731-185.455h-48.02l9.934-32.633h109.042c52.36 0 94.958-42.598 94.958-94.958-.001-43.591-29.829-81.205-71.077-91.899zm-148.181 249.491-29.387 48.345v-23.897h-37.551l12.461-87.082h38.375l-19.065 62.633h35.167zm124.299-92.634h-315.785c-24.998 0-45.335-20.337-45.335-45.335 0-24.521 19.946-44.846 44.463-45.308l11.499-.216 2.775-11.161c9.111-36.643 41.885-62.234 79.698-62.234 4.3 0 8.634.338 12.882 1.006l11.785 1.853 4.458-11.066c15.045-37.349 50.783-61.482 91.046-61.482 24.937 0 48.704 9.364 66.923 26.367 18.131 16.921 29.114 39.808 30.924 64.443l.897 12.216 12.148 1.563c32.254 4.149 56.578 31.834 56.578 64.398.002 35.817-29.138 64.956-64.956 64.956z"/></svg>