<svg id="Layer_1" enable-background="new 0 0 512.177 512.177" height="512" viewBox="0 0 512.177 512.177" width="512" xmlns="http://www.w3.org/2000/svg"><g><g><path d="m412.644 320.691h-333.857c-43.443 0-78.787-35.343-78.787-78.787 0-20.781 8.021-40.387 22.587-55.206 11.892-12.098 27.047-19.895 43.511-22.549 16.323-46.916 60.58-78.829 111.117-78.829 2.297 0 4.601.067 6.901.202 10.161-20.114 25.191-37.335 43.95-50.242 22.475-15.463 48.823-23.637 76.197-23.637 34.207 0 66.812 12.847 91.807 36.174 22.01 20.54 36.339 47.502 41.064 76.875 43.518 11.018 75.042 50.582 75.042 96.466.001 54.883-44.65 99.533-99.532 99.533zm-235.429-205.37c-40.372 0-75.363 27.324-85.092 66.447l-2.775 11.161-11.499.217c-26.384.496-47.849 22.369-47.849 48.758 0 26.901 21.886 48.787 48.787 48.787h333.856c38.341 0 69.533-31.192 69.533-69.533 0-34.858-26.037-64.494-60.564-68.935l-12.148-1.563-.897-12.216c-1.93-26.261-13.636-50.658-32.964-68.695-19.421-18.125-44.757-28.106-71.339-28.106-42.919 0-81.015 25.726-97.054 65.539l-4.458 11.067-11.786-1.854c-4.533-.712-9.16-1.074-13.751-1.074z"/></g><g><path d="m241.089 349.694h30v30.002h-30z"/></g><g><path d="m241.089 424.208h30v30.002h-30z"/></g><g><path d="m181.085 389.697h30v30.002h-30z"/></g><g><path d="m121.081 359.695h30v30.002h-30z"/></g><g><path d="m121.081 439.7h30v30.002h-30z"/></g><g><path d="m61.077 389.697h30v30.002h-30z"/></g><g><path d="m301.092 389.697h30v30.002h-30z"/></g><g><path d="m361.096 356.94h30v30.002h-30z"/></g><g><path d="m361.096 443.529h30v30.002h-30z"/></g><g><path d="m181.085 470.531h30v30.002h-30z"/></g><g><path d="m301.092 470.531h30v30.002h-30z"/></g><g><path d="m421.1 404.698h30v30.002h-30z"/></g></g></svg>