<svg id="Layer_1" enable-background="new 0 0 512.105 512.105" height="512" viewBox="0 0 512.105 512.105" width="512" xmlns="http://www.w3.org/2000/svg"><g><g><path d="m240.523.057h30v158.133h-30z"/></g><g><path d="m351.568 144.451h30v77.883h-30z"/></g><g><path d="m351.568 365.317h30v51.316h-30z"/></g><g><path d="m240.016 299.813h30v72.199h-30z"/></g><g><path d="m452.755 207.32h30v143.521h-30z"/></g><g><path d="m452.755 100.695h30v76.097h-30z"/></g><g><path d="m452.755 23.726h30v45.874h-30z"/></g><g><path d="m255.523 273.352c-24.455 0-44.351-19.896-44.351-44.351s19.896-44.351 44.351-44.351 44.351 19.896 44.351 44.351-19.896 44.351-44.351 44.351zm0-58.701c-7.913 0-14.351 6.438-14.351 14.351s6.438 14.351 14.351 14.351 14.351-6.438 14.351-14.351-6.438-14.351-14.351-14.351z"/></g><g><path d="m255.016 512.048c-31.313 0-56.788-25.475-56.788-56.788s25.475-56.788 56.788-56.788 56.788 25.475 56.788 56.788-25.475 56.788-56.788 56.788zm0-83.576c-14.771 0-26.788 12.017-26.788 26.788s12.017 26.788 26.788 26.788 26.788-12.017 26.788-26.788-12.017-26.788-26.788-26.788z"/></g><g><path d="m366.568 117.991c-29.027 0-52.642-23.615-52.642-52.643 0-29.027 23.615-52.642 52.642-52.642s52.643 23.615 52.643 52.642c-.001 29.027-23.616 52.643-52.643 52.643zm0-75.285c-12.485 0-22.642 10.157-22.642 22.642s10.157 22.643 22.642 22.643 22.643-10.157 22.643-22.643c-.001-12.485-10.158-22.642-22.643-22.642z"/></g><g><path d="m144.501 181.547c-29.027 0-52.642-23.615-52.642-52.643 0-29.027 23.615-52.642 52.642-52.642s52.642 23.615 52.642 52.642c0 29.028-23.615 52.643-52.642 52.643zm0-75.285c-12.485 0-22.642 10.157-22.642 22.642s10.157 22.643 22.642 22.643 22.642-10.157 22.642-22.643c0-12.485-10.157-22.642-22.642-22.642z"/></g><g><path d="m467.755 466.002c-24.455 0-44.351-19.896-44.351-44.351s19.896-44.351 44.351-44.351 44.351 19.896 44.351 44.351-19.896 44.351-44.351 44.351zm0-58.701c-7.913 0-14.351 6.438-14.351 14.351s6.438 14.351 14.351 14.351 14.351-6.438 14.351-14.351-6.438-14.351-14.351-14.351z"/></g><g><path d="m44.351 497.001c-24.455 0-44.351-19.896-44.351-44.351s19.896-44.35 44.351-44.35 44.351 19.896 44.351 44.351-19.896 44.35-44.351 44.35zm0-58.701c-7.913 0-14.351 6.437-14.351 14.35s6.438 14.351 14.351 14.351 14.351-6.438 14.351-14.351-6.438-14.35-14.351-14.35z"/></g><g><path d="m129.501 208.007h30v62.071h-30z"/></g><g><path d="m29.351 141.442h30v157.986h-30z"/></g><g><path d="m129.501 412.084h30v53.778h-30z"/></g><g><path d="m129.501.057h30v49.745h-30z"/></g><g><path d="m29.351 39.877h30v71.682h-30z"/></g><g><path d="m29.351 330.523h30v51.316h-30z"/></g><g><path d="m144.501 385.624c-24.455 0-44.351-19.896-44.351-44.351s19.896-44.351 44.351-44.351 44.351 19.896 44.351 44.351-19.896 44.351-44.351 44.351zm0-58.702c-7.913 0-14.351 6.438-14.351 14.351s6.438 14.351 14.351 14.351 14.351-6.438 14.351-14.351-6.438-14.351-14.351-14.351z"/></g><g><path d="m366.568 337.461c-24.455 0-44.351-19.896-44.351-44.351s19.896-44.351 44.351-44.351 44.351 19.896 44.351 44.351-19.896 44.351-44.351 44.351zm0-58.701c-7.913 0-14.351 6.438-14.351 14.351s6.438 14.351 14.351 14.351 14.351-6.438 14.351-14.351-6.438-14.351-14.351-14.351z"/></g></g></svg>