<svg id="Layer_1" enable-background="new 0 0 511.972 511.972" height="512" viewBox="0 0 511.972 511.972" width="512" xmlns="http://www.w3.org/2000/svg"><g><path d="m192.302 113.32-69.034 14.383v-30.85c9.421-10.293 15.18-23.992 15.18-39.013 0-31.893-25.947-57.84-57.84-57.84s-57.84 25.947-57.84 57.84c0 15.031 5.767 28.738 15.2 39.034v415.097h30v-397.698c4.071.912 8.298 1.408 12.64 1.408 4.35 0 8.583-.498 12.661-1.413v397.704h30v-179.27l69.034 14.383 296.901-45.356v-143.058zm15.411 32.702 40.373 6.167v156.026l-40.373 6.167zm70.373 10.749 40.372 6.167v134.526l-40.372 6.167zm70.372 10.75 40.373 6.167v113.027l-40.373 6.168zm-295.69-109.681c0-15.351 12.489-27.84 27.84-27.84s27.84 12.489 27.84 27.84-12.489 27.84-27.84 27.84-27.84-12.489-27.84-27.84zm70.501 100.507 54.444-11.343v166.397l-54.444-11.343zm335.935 117.617-40.373 6.168v-103.862l40.373 6.167z"/><path d="m449.635 353.583h-79.447v30h79.447c5.276 0 9.569 4.293 9.569 9.57 0 5.276-4.293 9.569-9.569 9.569-2.528 0-4.913-.977-6.715-2.75l-21.047 21.377c7.448 7.334 17.308 11.373 27.762 11.373 21.818 0 39.569-17.75 39.569-39.569s-17.751-39.57-39.569-39.57z"/><path d="m323.442 411.034h-121.498v30h121.498c8.28 0 15.018 6.737 15.018 15.017 0 8.281-6.737 15.018-15.018 15.018-3.968 0-7.709-1.533-10.535-4.315l-21.049 21.375c8.473 8.345 19.689 12.94 31.584 12.94 24.823 0 45.018-20.195 45.018-45.018s-20.195-45.017-45.018-45.017z"/><path d="m148.219 411.034h30.001v30h-30.001z"/></g></svg>