<svg id="Layer_1" enable-background="new 0 0 512.333 512.333" height="512" viewBox="0 0 512.333 512.333" width="512" xmlns="http://www.w3.org/2000/svg"><g><g><path d="m256.167 203.915c-39.837 0-72.247-32.41-72.247-72.247s32.41-72.247 72.247-72.247 72.247 32.41 72.247 72.247-32.411 72.247-72.247 72.247zm0-114.494c-23.295 0-42.247 18.952-42.247 42.247s18.952 42.247 42.247 42.247 42.247-18.952 42.247-42.247-18.953-42.247-42.247-42.247z"/></g><g><path d="m241.167 0h30v38.001h-30z"/></g><g><path d="m161.499 32.999h30v38.001h-30z" transform="matrix(.707 -.707 .707 .707 14.927 140.035)"/></g><g><path d="m124.499 116.668h38.001v30h-38.001z"/></g><g><path d="m157.498 196.336h38.001v30h-38.001z" transform="matrix(.707 -.707 .707 .707 -97.741 186.696)"/></g><g><path d="m241.167 225.335h30v38.001h-30z"/></g><g><path d="m320.834 192.335h30v38.001h-30z" transform="matrix(.707 -.707 .707 .707 -51.074 299.37)"/></g><g><path d="m349.833 116.668h38.001v30h-38.001z"/></g><g><path d="m316.834 37h38.001v30h-38.001z" transform="matrix(.707 -.707 .707 .707 61.592 252.698)"/></g><g><path d="m229.328 386.318-24.961-16.641 9.317-13.976c2.29-3.436 2.29-7.875-.001-11.311-9.028-13.544-9.028-31.047 0-44.592l9.318-13.976 24.961 16.641-9.317 13.976c-2.29 3.436-2.29 7.875.001 11.311 9.028 13.544 9.028 31.047 0 44.592z"/></g><g><path d="m169.324 386.318-24.961-16.641 9.317-13.976c2.29-3.436 2.29-7.875 0-11.31-9.029-13.545-9.029-31.048-.001-44.593l9.318-13.976 24.961 16.641-9.317 13.976c-2.29 3.436-2.29 7.875.001 11.311 9.029 13.544 9.029 31.048-.001 44.593z"/></g><g><path d="m289.332 386.318-24.961-16.641 9.317-13.976c2.29-3.436 2.29-7.875-.001-11.311-9.028-13.544-9.028-31.047 0-44.592l9.318-13.976 24.961 16.641-9.317 13.976c-2.29 3.436-2.29 7.875.001 11.311 9.028 13.544 9.028 31.047 0 44.592z"/></g><g><path d="m349.335 386.318-24.961-16.641 9.317-13.976c2.29-3.436 2.29-7.875-.001-11.311-9.029-13.544-9.029-31.048.001-44.593l9.317-13.975 24.961 16.641-9.317 13.976c-2.29 3.436-2.29 7.875 0 11.31 9.029 13.545 9.029 31.048.001 44.593z"/></g><g><path d="m512.143 512.333h-511.953v-79.578l39.13-17.051c11.461-4.994 23.612-7.527 36.113-7.527h.001c12.502 0 24.653 2.532 36.114 7.527 7.658 3.337 15.776 5.029 24.13 5.029s16.472-1.692 24.13-5.029c11.461-4.994 23.612-7.527 36.113-7.527h.001c12.502 0 24.653 2.532 36.114 7.527 7.658 3.337 15.776 5.029 24.13 5.029s16.472-1.692 24.13-5.029c11.461-4.994 23.612-7.527 36.113-7.527h.001c12.502 0 24.653 2.532 36.114 7.527 7.658 3.337 15.776 5.029 24.13 5.029s16.472-1.692 24.13-5.029c11.461-4.995 23.612-7.527 36.114-7.527s24.653 2.532 36.114 7.527l39.13 17.051v79.578zm-481.953-30h451.953v-29.926l-21.114-9.201c-7.658-3.337-15.776-5.029-24.13-5.029s-16.472 1.692-24.13 5.029c-11.461 4.995-23.612 7.527-36.114 7.527s-24.653-2.532-36.114-7.527c-7.658-3.337-15.776-5.029-24.13-5.029s-16.472 1.692-24.13 5.029c-11.461 4.995-23.612 7.527-36.114 7.527s-24.653-2.532-36.114-7.527c-7.658-3.337-15.776-5.029-24.13-5.029s-16.472 1.692-24.13 5.029c-11.461 4.995-23.612 7.527-36.114 7.527s-24.653-2.532-36.114-7.527c-7.658-3.337-15.776-5.029-24.13-5.029s-16.472 1.692-24.13 5.029l-21.114 9.201v29.926z"/></g></g></svg>