<svg id="Layer_1" enable-background="new 0 0 512.084 512.084" height="512" viewBox="0 0 512.084 512.084" width="512" xmlns="http://www.w3.org/2000/svg"><g><path d="m193.837 0h30v42.653h-30z"/><path d="m107.183 23.208h30v42.653h-30z" transform="matrix(.866 -.5 .5 .866 -5.898 67.058)"/><path d="m43.742 86.633h30v42.653h-30z" transform="matrix(.5 -.866 .866 .5 -64.125 104.852)"/><path d="m14.187 179.609h42.654v30h-42.654z"/><path d="m37.395 266.264h42.653v30h-42.653z" transform="matrix(.866 -.5 .5 .866 -132.764 67.043)"/><path d="m337.585 92.996h42.653v30h-42.653z" transform="matrix(.866 -.5 .5 .866 -5.912 193.926)"/><path d="m274.159 29.555h42.654v30h-42.654z" transform="matrix(.5 -.866 .866 .5 109.156 278.175)"/><path d="m433.726 264.505c-4.332-24.943-16.661-47.808-35.409-65.305-18.807-17.551-42.576-28.262-67.912-30.807-5.449-25.346-18.734-48.45-38.21-66.057-22.889-20.691-52.5-32.087-83.379-32.087-68.583 0-124.38 55.797-124.38 124.381 0 33.453 13.208 64.89 36.642 88.149-2.691 4.803-5.025 9.856-6.94 15.14-13.981 2.529-26.832 9.293-36.979 19.617-12.815 13.038-19.873 30.288-19.873 48.572 0 38.224 31.097 69.32 69.32 69.32h72.372l-27.829 64.821 27.567 11.835 32.91-76.656h41.892l-27.829 64.821 27.566 11.835 32.91-76.656h41.892l-27.829 64.821 27.567 11.835 32.91-76.656h30.206c47.964 0 86.986-39.022 86.986-86.987.001-39.603-26.87-73.818-64.171-83.936zm-319.29-69.875c0-52.042 42.339-94.381 94.38-94.381 43.118 0 79.847 28.802 90.94 69.078-16.917 2.744-33.006 9.163-47.29 18.991-15.881 10.926-28.683 25.416-37.488 42.322-1.519-.067-3.038-.101-4.553-.101-27.154 0-52.222 10.585-70.777 28.291-16.158-17.351-25.212-40.086-25.212-64.2zm296.476 210.798h-284.306c-21.681 0-39.32-17.639-39.32-39.32 0-21.267 17.299-38.896 38.563-39.296l11.499-.217 2.775-11.161c8.037-32.322 36.946-54.896 70.302-54.896 3.793 0 7.617.299 11.365.888l11.786 1.853 4.458-11.066c13.316-33.057 44.947-54.417 80.583-54.417 22.071 0 43.106 8.288 59.231 23.336 16.048 14.977 25.769 35.232 27.371 57.036l.897 12.216 12.148 1.563c28.295 3.64 49.632 27.927 49.632 56.495.002 31.422-25.562 56.986-56.984 56.986z"/></g></svg>