<svg id="Layer_1" enable-background="new 0 0 512.177 512.177" height="512" viewBox="0 0 512.177 512.177" width="512" xmlns="http://www.w3.org/2000/svg"><g><path d="m437.135 121.129c-4.726-29.373-19.055-56.335-41.064-76.875-24.995-23.327-57.6-36.174-91.807-36.174-27.374 0-53.722 8.174-76.198 23.637-18.759 12.907-33.789 30.128-43.95 50.242-2.301-.134-4.604-.202-6.901-.202-50.537 0-94.794 31.913-111.118 78.829-16.464 2.655-31.62 10.452-43.511 22.549-14.565 14.819-22.586 34.425-22.586 55.206 0 43.443 35.344 78.788 78.787 78.788h154.636l31.119 62.248-57.614 26.434 49.136 98.286 26.834-13.415-35.265-70.54 57.614-26.434-38.284-76.579h145.68c54.883 0 99.533-44.65 99.533-99.533.001-45.885-31.524-85.449-75.041-96.467zm-24.491 166h-333.857c-26.901 0-48.787-21.887-48.787-48.788 0-26.389 21.465-48.262 47.849-48.759l11.499-.217 2.775-11.161c9.729-39.123 44.72-66.446 85.092-66.446 4.593 0 9.22.361 13.75 1.074l11.786 1.854 4.458-11.067c16.038-39.813 54.133-65.539 97.053-65.539 26.582 0 51.918 9.982 71.339 28.106 19.328 18.038 31.034 42.434 32.964 68.695l.897 12.215 12.148 1.563c34.527 4.441 60.564 34.077 60.564 68.935.003 38.342-31.19 69.535-69.53 69.535z"/><path d="m147.907 342.131h30v66h-30z"/><path d="m87.903 423.133h30v66h-30z"/><path d="m147.918 438.134h30v51h-30z"/><path d="m87.903 342.131h30v51h-30z"/><path d="m394.263 342.131h30v66h-30z"/><path d="m334.259 423.133h30v66h-30z"/><path d="m394.273 438.134h30v51h-30z"/><path d="m334.259 342.131h30v51h-30z"/></g></svg>