<svg id="Layer_1" enable-background="new 0 0 512.002 512.002" height="512" viewBox="0 0 512.002 512.002" width="512" xmlns="http://www.w3.org/2000/svg"><g><path d="m211.631 25.195h30v72.467h-30z"/><path d="m43.127 122.481h30v72.468h-30z" transform="matrix(.5 -.866 .866 .5 -108.388 129.696)"/><path d="m21.893 338.287h72.468v30h-72.468z" transform="matrix(.866 -.5 .5 .866 -168.857 76.396)"/><path d="m211.631 414.339h30v72.467h-30z"/><path d="m109.897 56.63h30v46.324h-30z" transform="matrix(.866 -.5 .5 .866 -23.163 73.14)"/><path d="m0 241.001h46.324v30h-46.324z"/><path d="m101.734 417.21h46.324v30h-46.324z" transform="matrix(.5 -.866 .866 .5 -311.856 324.267)"/><path d="m313.365 409.048h30v46.324h-30z" transform="matrix(.866 -.5 .5 .866 -172.113 222.089)"/><path d="m305.203 64.792h46.324v30h-46.324z" transform="matrix(.5 -.866 .866 .5 95.08 324.268)"/><path d="m379.41 123.409c-28.406 0-54.751 8.982-76.352 24.251-22.264-15.708-48.973-24.251-76.427-24.251-73.111 0-132.592 59.48-132.592 132.592s59.48 132.592 132.592 132.592c27.454 0 54.163-8.542 76.427-24.251 21.601 15.268 47.947 24.251 76.352 24.251 73.111 0 132.592-59.48 132.592-132.592s-59.481-132.592-132.592-132.592zm-255.371 132.592c0-56.569 46.022-102.592 102.592-102.592 18.917 0 37.364 5.259 53.342 14.987-20.622 23.379-33.154 54.054-33.154 87.605s12.533 64.226 33.154 87.605c-15.978 9.728-34.425 14.987-53.342 14.987-56.569 0-102.592-46.023-102.592-102.592zm255.371 102.592c-56.569 0-102.592-46.022-102.592-102.592s46.022-102.592 102.592-102.592 102.592 46.022 102.592 102.592-46.023 102.592-102.592 102.592z"/><path d="m364.41 187.838h30v30.002h-30z"/><path d="m419.414 217.84h30v30.002h-30z"/></g></svg>