<svg id="Layer_1" enable-background="new 0 0 511.93 511.93" height="512" viewBox="0 0 511.93 511.93" width="512" xmlns="http://www.w3.org/2000/svg"><g><path d="m60.303 162.445c30.545.002 55.395 24.854 55.395 55.399h30c0-30.545 24.851-55.396 55.396-55.399v-30c-9.833-.001-19.068-2.588-27.082-7.1l74.755-74.755-21.213-21.213-74.755 74.755c-4.513-8.015-7.1-17.252-7.1-27.086h-30c0 30.545-24.85 55.396-55.395 55.398v30.001zm70.394-37.105c5.952 8.648 13.458 16.154 22.106 22.105-8.648 5.952-16.154 13.458-22.106 22.106-5.952-8.648-13.457-16.154-22.105-22.106 8.648-5.951 16.153-13.457 22.105-22.105z"/><path d="m467.363.005h-30c0 24.574-19.992 44.568-44.566 44.57v30c24.574.001 44.566 19.995 44.566 44.569h30c0-24.574 19.992-44.568 44.566-44.569v-30c-24.574-.002-44.566-19.996-44.566-44.57zm-15 74.33c-4.208-5.58-9.181-10.553-14.761-14.761 5.58-4.208 10.553-9.182 14.761-14.761 4.208 5.58 9.181 10.553 14.761 14.761-5.58 4.208-10.553 9.181-14.761 14.761z"/><path d="m241.255 249.452-120.952 120.952c-8.252-12.288-13.076-27.063-13.076-42.945h-30c0 42.583-34.645 77.23-77.228 77.233v30c42.583.003 77.228 34.649 77.228 77.233h30c0-42.583 34.645-77.23 77.228-77.233v-30c-15.88-.001-30.652-4.824-42.939-13.076l120.951-120.952zm-149.027 207.82c-9.185-15.442-22.138-28.394-37.58-37.58 15.442-9.186 28.396-22.138 37.58-37.58 9.185 15.442 22.138 28.394 37.58 37.58-15.443 9.186-28.396 22.138-37.58 37.58z"/><path d="m269.026 192.421h70.944v30h-70.944z" transform="matrix(.707 -.707 .707 .707 -57.483 276.065)"/><path d="m473.438 283.788-21.213-21.213-54.753 54.754c-4.513-8.015-7.1-17.252-7.1-27.086h-30c0 30.545-24.85 55.396-55.395 55.399v30c30.545.002 55.395 24.854 55.395 55.398h30c0-30.545 24.851-55.396 55.396-55.398v-30c-9.833-.001-19.068-2.588-27.082-7.1zm-98.066 98.959c-5.951-8.648-13.457-16.154-22.105-22.105 8.648-5.952 16.154-13.458 22.105-22.106 5.952 8.648 13.458 16.154 22.106 22.106-8.648 5.951-16.154 13.457-22.106 22.105z"/><path d="m348.333 133.585h30.002v30h-30.002z" transform="matrix(.707 -.707 .707 .707 1.349 300.427)"/><path d="m275.268 430.745h30.001v30h-30.001z" transform="matrix(.707 -.707 .707 .707 -230.171 335.807)"/><path d="m455.832 449.705h30.002v30h-30.002z" transform="matrix(.707 -.707 .707 .707 -190.692 469.023)"/><path d="m447.363 177.946h30.001v30h-30.001z" transform="matrix(.707 -.707 .707 .707 -1.01 383.453)"/><path d="m293.665 18.934h30.002v30h-30.002z" transform="matrix(.707 -.707 .707 .707 66.407 228.193)"/><path d="m19.544 228.623h30.002v30h-30.002z" transform="matrix(.707 -.707 .707 .707 -162.15 95.782)"/><path d="m42.34 59.088h30.001v30h-30.001z" transform="matrix(.707 -.707 .707 .707 -35.594 62.246)"/></g></svg>