<svg id="Layer_1" enable-background="new 0 0 511.92 511.92" height="512" viewBox="0 0 511.92 511.92" width="512" xmlns="http://www.w3.org/2000/svg"><g><path d="m346.65 481.92-21.957-58.324c-11.829-31.422-13.729-65.236-5.493-97.786 8.236-32.549 25.989-61.391 51.34-83.406 42.368-36.794 66.667-90.079 66.667-146.194v-47.898c0-10.796-7.282-19.719-21.643-26.522-9.479-4.49-22.635-8.44-39.103-11.74-32.34-6.481-75.135-10.05-120.501-10.05s-88.161 3.569-120.502 10.049c-16.468 3.3-29.624 7.25-39.103 11.74-14.361 6.804-21.643 15.727-21.643 26.522v37.163c0 44.45 18.543 87.435 50.875 117.933 26.375 24.88 35.433 62.981 23.075 97.068-14.248 39.304-7.421 82.461 18.262 115.447l51.385 65.997h-182.76v30h440.822v-30h-129.721zm-195.602-444.244c29.148-4.95 66.407-7.676 104.912-7.676s75.764 2.726 104.912 7.676c23.716 4.027 35.967 8.397 42.044 11.321-6.078 2.924-18.328 7.294-42.044 11.322-29.148 4.95-66.407 7.676-104.912 7.676s-75.764-2.726-104.912-7.676c-23.717-4.027-35.967-8.397-42.044-11.322 6.077-2.925 18.328-7.294 42.044-11.321zm39.547 359.817c-17.175-22.059-23.122-50.167-16.69-76.905h46.799v-30h-38.464c7.041-39.641-6.102-80.737-36.068-109.003-6.305-5.948-11.959-12.483-16.924-19.474h43.517v-30h-59.495c-5.59-14.792-8.558-30.596-8.558-46.637v-5.7c9.629 3.541 20.461 6.11 30.746 8.17 32.341 6.48 75.136 10.049 120.502 10.049s88.161-3.568 120.502-10.049c10.285-2.061 21.117-4.63 30.746-8.17v16.434c0 24.144-5.334 47.663-15.285 69.044h-75.551v30h57.446c-6.735 8.854-14.4 17.078-22.947 24.5-29.999 26.052-51.006 60.181-60.752 98.698-5.077 20.066-6.892 40.537-5.494 60.803h-28.665v30h33.127c1.94 8.41 4.45 16.73 7.53 24.912l17.977 47.754h-58.265z"/><path d="m354.036 365.592h30v30.002h-30z"/><path d="m394.039 325.59h30v30.001h-30z"/><path d="m97.882 415.595h30v30.002h-30z"/><path d="m57.879 375.593h30v30.002h-30z"/></g></svg>