<svg id="Layer_1" enable-background="new 0 0 511.953 511.953" height="512" viewBox="0 0 511.953 511.953" width="512" xmlns="http://www.w3.org/2000/svg"><path d="m496.766 355.897v-47.216c0-64.315-25.046-124.782-70.524-170.26-45.479-45.479-105.946-70.525-170.262-70.525s-124.782 25.046-170.26 70.525c-45.479 45.478-70.524 105.944-70.524 170.26v47.208c-9.419 9.41-15.196 22.388-15.196 36.527 0 28.475 23.166 51.641 51.641 51.641h144.709c23.517 0 42.648-19.132 42.648-42.648 0-18.518-12.093-34.486-28.792-40.296v-52.43c0-25.24 20.534-45.775 45.774-45.775s45.775 20.535 45.775 45.775v52.427c-16.703 5.808-28.8 21.779-28.8 40.299 0 23.517 19.132 42.648 42.648 42.648h144.709c28.475 0 51.641-23.166 51.641-51.641 0-14.136-5.774-27.11-15.187-36.519zm-240.785-258.001c116.227 0 210.785 94.558 210.785 210.784v11.234c-6.589-8.748-15.261-15.825-25.235-20.507-4.848-98.15-86.219-176.509-185.55-176.509-99.33 0-180.7 78.357-185.55 176.505-9.973 4.68-18.645 11.755-25.235 20.501v-11.225c-.001-116.225 94.557-210.783 210.785-210.783zm130.402 200.83c-5.103-67.478-61.64-120.823-130.402-120.823-68.763 0-125.3 53.346-130.402 120.826-7.623-3.343-15.942-5.284-24.607-5.583 7.82-78.633 74.353-140.248 155.01-140.248 80.656 0 147.188 61.615 155.009 140.247-8.666.299-16.986 2.24-24.608 5.581zm-190.033 115.331h-144.709c-11.933 0-21.641-9.708-21.641-21.641 0-10.848 8.098-20.069 18.837-21.451l12.148-1.563.897-12.215c1.405-19.112 17.541-34.083 36.735-34.083 15.118 0 28.536 9.062 34.185 23.084l4.457 11.063 11.783-1.85c1.533-.24 3.096-.362 4.645-.362 13.587 0 25.363 9.192 28.636 22.354l2.775 11.16 11.499.217c6.839.129 12.402 5.798 12.402 12.638 0 6.975-5.675 12.649-12.649 12.649zm59.63-181.151c-41.782 0-75.774 33.993-75.774 75.775v22.564c-7.473-3.711-15.8-5.888-24.54-6.174-.151-.248-.31-.489-.463-.735v-15.656c0-55.569 45.209-100.778 100.778-100.778s100.778 45.209 100.778 100.778v15.643c-.157.25-.318.496-.472.748-8.736.286-17.061 2.461-24.532 6.169v-22.56c0-41.781-33.992-75.774-75.775-75.774zm204.333 181.151h-144.709c-6.974 0-12.648-5.674-12.648-12.648 0-6.84 5.563-12.509 12.402-12.638l11.499-.217 2.775-11.16c3.273-13.161 15.048-22.354 28.636-22.354 1.549 0 3.112.122 4.645.362l11.782 1.85 4.457-11.063c5.649-14.023 19.067-23.085 34.185-23.085 19.195 0 35.331 14.971 36.735 34.083l.897 12.215 12.148 1.563c10.739 1.382 18.837 10.604 18.837 21.451-.001 11.933-9.709 21.641-21.641 21.641z"/></svg>