<svg id="Layer_1" enable-background="new 0 0 512.021 512.021" height="512" viewBox="0 0 512.021 512.021" width="512" xmlns="http://www.w3.org/2000/svg"><g><path d="m386.051 152.459c0-31.614-25.72-57.334-57.333-57.334v30c15.071 0 27.333 12.262 27.333 27.334 0 15.071-12.262 27.333-27.333 27.333h-228.712v30h228.711c31.614 0 57.334-25.719 57.334-57.333z"/><path d="m512.021 278.41c0-39.365-32.025-71.391-71.391-71.391v30c22.823 0 41.391 18.567 41.391 41.391s-18.567 41.392-41.391 41.392h-292.966v30h292.966c39.365-.001 71.391-32.027 71.391-71.392z"/><path d="m240.999 379.805h30.002v30h-30.002z"/><path d="m195.671 249.797h175.003v30h-175.003z"/><path d="m53.336 91.375h30.002v30h-30.002z"/><path d="m113 35.843h30.002v30h-30.002z"/><path d="m221.423 110.913 19.577-11.303v22.605h30v-22.605l19.577 11.303 15-25.981-19.577-11.303 19.577-11.303-15-25.981-19.577 11.303v-22.606h-30v22.606l-19.577-11.303-15 25.981 19.577 11.303-19.577 11.303z"/><path d="m84.208 321.378-19.577 11.303v-22.605h-30v22.605l-19.577-11.303-15 25.981 19.577 11.303-19.577 11.303 15 25.981 19.577-11.303v22.606h30v-22.606l19.577 11.303 15-25.981-19.578-11.303 19.578-11.303z"/><path d="m496.997 401.108-19.577 11.303v-22.606h-30v22.606l-19.577-11.303-15 25.98 19.577 11.304-19.577 11.303 15 25.98 19.577-11.303v22.606h30v-22.606l19.577 11.303 15-25.98-19.578-11.303 19.578-11.304z"/><path d="m0 179.792h70.004v30h-70.004z"/><path d="m420.34 91.375h30.002v30h-30.002z"/><path d="m109.148 432.684h30.002v30h-30.002z"/><path d="m76.707 244.796h30.002v30h-30.002z"/><path d="m311.148 413.391h30.002v30h-30.002z"/></g></svg>