<svg id="Layer_1" enable-background="new 0 0 511.877 511.877" height="512" viewBox="0 0 511.877 511.877" width="512" xmlns="http://www.w3.org/2000/svg"><path d="m419.988 325.617-22.168 20.213 23.793 26.097h-155.41v-72.935c64.384-7.459 114.533-62.308 114.533-128.66v-80.582h27.007v-30h-27.007v-10.157c0-27.346-22.247-49.593-49.592-49.593h-49.593v128.369h-130.136c-3.017-38.339-35.156-68.619-74.257-68.619h-22.163v98.619h66.675v11.963c0 66.351 50.149 121.201 114.533 128.66v72.935h-69.768l-33.187-36.399-22.169 20.213 14.758 16.187h-34.492l-33.187-36.399-22.169 20.211 28.435 31.187-28.434 31.185 22.168 20.213 33.187-36.398h34.492l-14.757 16.186 22.168 20.213 33.187-36.398h69.768v79.95h-38.307v30h106.614v-30h-38.307v-79.95h155.411l-23.793 26.097 22.168 20.213 55.899-61.31zm-199.133-167.248h60.695v9.502c0 16.734-13.614 30.349-30.348 30.349s-30.348-13.614-30.348-30.349v-9.502zm-135.86-30v-37.929c18.92 3.374 33.738 18.739 36.286 37.929zm226.556-98.369h19.593c10.804 0 19.593 8.789 19.593 19.593v120.739c0 54.883-44.65 99.533-99.533 99.533s-99.533-44.65-99.533-99.533v-11.963h39.186v9.502c0 33.276 27.072 60.349 60.348 60.349s60.348-27.072 60.348-60.349v-137.871z"/></svg>