<svg id="Layer_1" enable-background="new 0 0 511.929 511.929" height="512" viewBox="0 0 511.929 511.929" width="512" xmlns="http://www.w3.org/2000/svg"><g><path d="m511.929 26.628h-511.929v30h23.638v70.78l29.333 30v75.667l44.667 49.335v88.797l43.002 46.074 43.001-46.074v-170.756l19.292-22.824h14.729l25.958 101.332h25.194l32.046-121.333h23.777v75.782l29 34.665v73.915l45.002 30.001 45.001-30.001v-51.682l20.663-32.667v-69.254l24.571-74.002v-57.755h23.054v-30zm-53.054 82.906-24.571 74.002v65.412l-20.663 32.667v44.318l-15.001 10.001-15.002-10.002v-68.752l-29-34.666v-94.888h-76.883l-21.287 80.597-15.522-60.596h-51.937l-35.368 41.844v169.912l-13.001 13.93-13.002-13.93v-88.535l-44.667-49.335v-76.333l-29.333-30v-58.552h405.237z"/><path d="m125.639 441.295h30.001v30h-30.001z"/><path d="m383.639 395.298h30.001v30h-30.001z"/><path d="m383.639 455.301h30.001v30h-30.001z"/></g></svg>