<svg id="Layer_1" enable-background="new 0 0 512.159 512.159" height="512" viewBox="0 0 512.159 512.159" width="512" xmlns="http://www.w3.org/2000/svg"><g><path d="m191.972 315.512v-29.938h26.105v-30h-26.105v-177.507c0-43.046-35.021-78.067-78.067-78.067s-78.067 35.021-78.067 78.067v237.443c-23.254 21.889-36.199 52.286-35.741 84.479.422 29.663 12.292 57.634 33.424 78.759 21.132 21.126 49.106 32.987 78.769 33.4.538.007 1.078.011 1.614.011h.003c30.401 0 58.985-11.84 80.481-33.336 21.498-21.498 33.337-50.081 33.337-80.484 0-31.55-12.945-61.346-35.753-82.827zm-18.797 142.097c-16.113 16.113-37.636 24.808-60.468 24.542-44.915-.625-81.975-37.674-82.613-82.588-.363-25.497 10.69-49.466 30.324-65.76l5.42-4.499v-251.237c0-26.504 21.563-48.067 48.067-48.067s48.067 21.563 48.067 48.067v177.507h-33.067v-179.52h-30v269.382c-23.056 6.547-39.999 27.777-39.999 52.903 0 30.326 24.672 54.999 54.999 54.999 30.326 0 54.999-24.673 54.999-54.999 0-25.126-16.943-46.355-39.999-52.903v-59.862h33.067v43.73l5.421 4.499c19.276 15.997 30.332 39.52 30.332 64.535 0 22.391-8.719 43.44-24.55 59.271zm-59.27-84.269c13.784 0 24.999 11.215 24.999 24.999s-11.214 24.999-24.999 24.999-24.999-11.215-24.999-24.999 11.214-24.999 24.999-24.999z"/><path d="m512.074 131.027-23.958-18.057-16.961 22.505h-39.286c-1.125-3.886-2.669-7.594-4.592-11.068l27.785-27.785 27.906 3.92 4.173-29.709-24.116-3.387-3.388-24.117-29.708 4.174 3.92 27.906-27.784 27.784c-3.474-1.923-7.182-3.466-11.068-4.592v-39.285l22.505-16.961-18.057-23.957-19.448 14.657-19.448-14.657-18.057 23.957 22.505 16.961v39.286c-3.886 1.126-7.595 2.669-11.069 4.592l-27.785-27.784 3.92-27.906-29.708-4.174-3.388 24.117-24.116 3.387 4.173 29.709 27.906-3.92 27.785 27.785c-1.923 3.474-3.466 7.182-4.592 11.068h-39.287l-16.961-22.505-23.958 18.057 14.658 19.448-14.658 19.448 23.958 18.057 16.961-22.505h39.287c1.126 3.886 2.669 7.594 4.592 11.068l-27.785 27.785-27.906-3.92-4.173 29.709 24.116 3.387 3.388 24.117 29.708-4.174-3.92-27.906 27.785-27.785c3.474 1.923 7.182 3.466 11.068 4.592v39.286l-22.504 16.96 18.056 23.959 19.449-14.657 19.449 14.657 18.056-23.959-22.504-16.96v-39.286c3.886-1.125 7.594-2.669 11.068-4.592l27.785 27.785-3.92 27.906 29.708 4.174 3.388-24.117 24.116-3.387-4.173-29.709-27.906 3.92-27.785-27.785c1.923-3.474 3.466-7.182 4.592-11.068h39.286l16.961 22.505 23.958-18.057-14.658-19.448zm-132.078 43.456c-13.238 0-24.008-10.77-24.008-24.008s10.77-24.009 24.008-24.009 24.008 10.771 24.008 24.009-10.769 24.008-24.008 24.008z"/></g></svg>