<svg id="Layer_1" enable-background="new 0 0 512.159 512.159" height="512" viewBox="0 0 512.159 512.159" width="512" xmlns="http://www.w3.org/2000/svg"><g><path d="m192.026 315.512v-172.547h26.105v-30h-26.105v-34.898c0-43.046-35.021-78.067-78.067-78.067s-78.068 35.021-78.068 78.067v237.443c-23.254 21.888-36.198 52.286-35.741 84.479.422 29.663 12.292 57.634 33.424 78.759 21.132 21.126 49.106 32.987 78.769 33.4.538.007 1.078.011 1.614.011h.003c30.401 0 58.985-11.84 80.481-33.336 21.498-21.498 33.337-50.081 33.337-80.484.001-31.55-12.944-61.346-35.752-82.827zm-18.798 142.097c-16.113 16.113-37.637 24.808-60.468 24.542-44.915-.625-81.975-37.674-82.613-82.588-.363-25.497 10.69-49.466 30.324-65.76l5.42-4.499v-251.237c0-26.504 21.563-48.067 48.068-48.067s48.067 21.563 48.067 48.067v34.897h-33.067v-36.91h-30v269.382c-23.056 6.547-39.999 27.777-39.999 52.903 0 30.326 24.672 54.999 54.999 54.999 30.326 0 54.999-24.673 54.999-54.999 0-25.126-16.943-46.355-39.999-52.903v-202.471h33.067v186.34l5.421 4.499c19.276 15.997 30.332 39.52 30.332 64.535 0 22.39-8.719 43.439-24.551 59.27zm-59.269-84.269c13.784 0 24.999 11.215 24.999 24.999s-11.214 24.999-24.999 24.999-24.999-11.215-24.999-24.999 11.214-24.999 24.999-24.999z"/><path d="m380.05 79.568c-39.098 0-70.907 31.809-70.907 70.907s31.809 70.906 70.907 70.906 70.907-31.809 70.907-70.906c0-39.098-31.809-70.907-70.907-70.907zm0 111.814c-22.556 0-40.907-18.351-40.907-40.906 0-22.557 18.351-40.907 40.907-40.907s40.907 18.351 40.907 40.907c0 22.555-18.351 40.906-40.907 40.906z"/><path d="m365.05 18.505h30v40.788h-30z"/><path d="m286.153 51.185h30v40.788h-30z" transform="matrix(.707 -.707 .707 .707 37.589 233.908)"/><path d="m248.079 135.476h40.788v30h-40.788z"/><path d="m280.759 214.372h40.788v30h-40.788z" transform="matrix(.707 -.707 .707 .707 -73.984 280.133)"/><path d="m365.05 241.658h30v40.788h-30z"/><path d="m443.947 208.978h30v40.788h-30z" transform="matrix(.707 -.707 .707 .707 -27.768 391.706)"/><path d="m471.233 135.476h40.788v30h-40.788z"/><path d="m438.552 56.579h40.788v30h-40.788z" transform="matrix(.707 -.707 .707 .707 83.808 345.489)"/></g></svg>