<svg id="Layer_1" enable-background="new 0 0 511.797 511.797" height="512" viewBox="0 0 511.797 511.797" width="512" xmlns="http://www.w3.org/2000/svg"><g><g><path d="m418.276 511.797h-93.087c-50.828 0-99.187-19.185-136.169-54.019-33.368-31.43-54.6-72.832-60.673-117.784h-20.065c-43.165 0-78.282 35.118-78.282 78.282h-30v-93.086c0-50.828 19.184-99.188 54.018-136.17 31.43-33.367 72.833-54.6 117.785-60.673v-20.065c0-43.165-35.117-78.282-78.282-78.282v-30h93.086c50.828 0 99.188 19.184 136.169 54.018 33.367 31.43 54.6 72.833 60.673 117.785h20.065c43.165 0 78.282-35.117 78.282-78.281h30v93.086c0 50.828-19.185 99.188-54.019 136.17-31.43 33.367-72.833 54.6-117.785 60.673v20.065c0 43.164 35.117 78.281 78.282 78.281v30zm-309.995-201.803h47.715l.896 14.046c5.637 88.462 79.563 157.757 168.297 157.757h18.347c-20.657-19.73-33.542-47.528-33.542-78.281v-47.715l14.046-.896c88.462-5.638 157.758-79.563 157.758-168.298v-18.347c-19.73 20.657-47.528 33.542-78.282 33.542h-47.716l-.896-14.046c-5.637-88.461-79.562-157.756-168.296-157.756h-18.347c20.657 19.73 33.542 47.528 33.542 78.281v47.715l-14.046.896c-88.462 5.638-157.757 79.563-157.757 168.298v18.347c19.73-20.658 47.528-33.543 78.281-33.543z"/></g><g><path d="m255.898 315.336c-32.774 0-59.438-26.663-59.438-59.438s26.664-59.438 59.438-59.438 59.438 26.663 59.438 59.438-26.664 59.438-59.438 59.438zm0-88.875c-16.232 0-29.438 13.206-29.438 29.438s13.206 29.438 29.438 29.438 29.438-13.206 29.438-29.438-13.206-29.438-29.438-29.438z"/></g></g></svg>