<svg id="Layer_1" enable-background="new 0 0 512.177 512.177" height="512" viewBox="0 0 512.177 512.177" width="512" xmlns="http://www.w3.org/2000/svg"><g><path d="m75.832 409.329h87.628v30h-87.628z" transform="matrix(.395 -.919 .919 .395 -317.467 366.858)"/><path d="m145.836 409.329h87.629v30h-87.629z" transform="matrix(.395 -.919 .919 .395 -275.081 431.184)"/><path d="m215.841 409.329h87.628v30h-87.628z" transform="matrix(.395 -.919 .919 .395 -232.696 495.51)"/><path d="m437.135 154.717c-4.726-29.372-19.055-56.335-41.064-76.874-24.995-23.327-57.6-36.174-91.807-36.174-27.374 0-53.723 8.174-76.197 23.637-18.759 12.907-33.789 30.128-43.95 50.242-2.301-.135-4.604-.202-6.901-.202-50.537 0-94.794 31.913-111.117 78.829-16.464 2.654-31.619 10.451-43.511 22.549-14.567 14.818-22.588 34.423-22.588 55.205 0 43.443 35.344 78.787 78.787 78.787h333.856c54.883 0 99.533-44.65 99.533-99.532.001-45.885-31.524-85.45-75.041-96.467zm-24.491 165.999h-333.857c-26.901 0-48.787-21.886-48.787-48.787 0-26.389 21.465-48.261 47.849-48.759l11.499-.217 2.775-11.16c9.729-39.123 44.72-66.447 85.092-66.447 4.591 0 9.218.361 13.751 1.074l11.786 1.854 4.458-11.066c16.039-39.813 54.135-65.539 97.054-65.539 26.582 0 51.918 9.981 71.339 28.106 19.328 18.037 31.034 42.434 32.964 68.695l.897 12.215 12.148 1.563c34.527 4.442 60.564 34.077 60.564 68.936.001 38.339-31.192 69.532-69.532 69.532z"/><path d="m402.22 388.601-16.839 9.722v-19.445h-30v19.445l-16.84-9.722-15 25.98 16.84 9.723-16.84 9.722 15 25.981 16.84-9.723v19.445h30v-19.444l16.839 9.722 15-25.981-16.84-9.722 16.84-9.723z"/></g></svg>