<svg id="Layer_1" enable-background="new 0 0 512.128 512.128" height="512" viewBox="0 0 512.128 512.128" width="512" xmlns="http://www.w3.org/2000/svg"><g><path d="m256.064 213.684c-23.368 0-42.38 19.012-42.38 42.38s19.012 42.38 42.38 42.38 42.38-19.012 42.38-42.38-19.011-42.38-42.38-42.38zm0 54.76c-6.826 0-12.38-5.554-12.38-12.38s5.554-12.38 12.38-12.38 12.38 5.554 12.38 12.38-5.553 12.38-12.38 12.38z"/><path d="m371.14 308.122 140.988-52.058-140.988-52.058 31.815-94.834-94.833 31.815-52.058-140.987-52.058 140.987-94.833-31.815 31.815 94.834-140.988 52.058 140.988 52.058-31.815 94.834 94.833-31.815 52.058 140.987 52.058-140.987 94.833 31.815zm-15.802-151.332-12.352 36.821-17.869-6.598-6.598-17.87zm-198.548 0 36.82 12.352-6.599 17.87-17.869 6.598zm0 198.548 12.352-36.821 17.869 6.598 6.599 17.87zm53.577-53.578-123.758-45.696 123.758-45.696 45.697-123.758 45.696 123.758 123.758 45.696-123.757 45.696-45.696 123.758zm114.749 23.356 17.869-6.598 12.352 36.821-36.82-12.352z"/></g></svg>