<svg id="Layer_1" enable-background="new 0 0 511.928 511.928" height="512" viewBox="0 0 511.928 511.928" width="512" xmlns="http://www.w3.org/2000/svg"><g><path d="m361.984 0h-212.041c-27.194 0-49.318 22.124-49.318 49.317v413.293c0 27.193 22.124 49.317 49.318 49.317h212.041c27.194 0 49.318-22.124 49.318-49.317v-413.293c.001-27.193-22.123-49.317-49.318-49.317zm-212.041 30h212.041c10.652 0 19.318 8.666 19.318 19.317v355.98h-250.677v-355.98c0-10.651 8.666-19.317 19.318-19.317zm212.041 451.928h-212.041c-10.652 0-19.318-8.666-19.318-19.317v-27.313h110.339v20.999h30v-20.999h110.339v27.313c0 10.651-8.666 19.317-19.319 19.317z"/><path d="m191.128 246.754h122.085c25.316 0 45.912-20.596 45.912-45.912 0-19.064-11.8-35.764-28.814-42.606-4.383-16.28-15.634-29.729-30.317-37.186-8.051-29.014-34.861-49.955-65.652-49.955-37.569 0-68.134 30.564-68.134 68.134 0 12.151 3.24 23.937 9.261 34.266-13.323 6.04-22.666 19.502-22.666 34.933 0 21.133 17.193 38.326 38.325 38.326zm112.003-63.246 12.148 1.563c7.893 1.016 13.846 7.796 13.846 15.771 0 8.774-7.138 15.912-15.912 15.912h-122.085c-4.591 0-8.326-3.735-8.326-8.326 0-4.501 3.662-8.232 8.163-8.317l11.499-.217 2.775-11.16c2.5-10.056 11.499-17.079 21.883-17.079 1.189 0 2.383.093 3.548.276l11.788 1.856 4.459-11.068c4.406-10.938 14.873-18.007 26.665-18.007 14.971 0 27.557 11.676 28.653 26.581zm-68.789-82.413c11.894 0 22.726 5.58 29.778 14.371-16.53 2.658-31.031 12.202-40.007 26.273-9.589.541-18.576 3.661-26.199 8.75-1.117-3.615-1.707-7.404-1.707-11.26.001-21.028 17.107-38.134 38.135-38.134z"/><path d="m285.966 279.961h63.16v30h-63.16z"/><path d="m162.802 279.961h93.162v30h-93.162z"/><path d="m285.966 338.965h63.16v30h-63.16z"/><path d="m162.802 338.965h93.162v30h-93.162z"/></g></svg>