<svg id="Layer_1" enable-background="new 0 0 512.063 512.063" height="512" viewBox="0 0 512.063 512.063" width="512" xmlns="http://www.w3.org/2000/svg"><g><g><path d="m256.031 512.063c-99.703 0-180.817-81.114-180.817-180.817 0-46.065 28.708-113.659 85.326-200.903 41.417-63.82 83.442-115.553 83.862-116.068l11.629-14.275 11.629 14.273c.419.516 42.445 52.248 83.862 116.068 56.618 87.244 85.326 154.838 85.326 200.903.001 99.704-81.113 180.819-180.817 180.819zm.001-464.107c-15.146 19.531-42.949 56.509-70.474 98.943-52.562 81.032-80.344 144.778-80.344 184.346 0 83.161 67.656 150.817 150.817 150.817 83.162 0 150.818-67.656 150.818-150.817 0-39.606-27.833-103.431-80.491-184.572-27.503-42.38-55.215-79.235-70.326-98.717z"/></g><g><path d="m137.208 301.888h237.647v30h-237.647z" transform="matrix(.707 -.707 .707 .707 -149.084 273.856)"/></g><g><path d="m299.615 437.314c-24.017 0-43.555-19.538-43.555-43.555s19.538-43.555 43.555-43.555 43.555 19.538 43.555 43.555-19.538 43.555-43.555 43.555zm0-57.109c-7.474 0-13.555 6.081-13.555 13.555s6.081 13.555 13.555 13.555 13.555-6.081 13.555-13.555-6.081-13.555-13.555-13.555z"/></g><g><path d="m212.447 283.571c-24.016 0-43.555-19.538-43.555-43.555s19.539-43.555 43.555-43.555 43.555 19.538 43.555 43.555-19.539 43.555-43.555 43.555zm0-57.109c-7.474 0-13.555 6.081-13.555 13.555s6.081 13.555 13.555 13.555 13.555-6.081 13.555-13.555-6.081-13.555-13.555-13.555z"/></g></g></svg>