<svg id="Layer_1" enable-background="new 0 0 512.117 512.117" height="512" viewBox="0 0 512.117 512.117" width="512" xmlns="http://www.w3.org/2000/svg"><g><path d="m52.291 101.492h30v83.893h-30z" transform="matrix(.5 -.866 .866 .5 -90.576 129.994)"/><path d="m25.344 353.686h83.893v30h-83.893z" transform="matrix(.866 -.5 .5 .866 -175.329 83.041)"/><path d="m129.588 25.258h30v53.627h-30z" transform="matrix(.866 -.5 .5 .866 -6.665 79.27)"/><path d="m0 241.063h53.627v30h-53.627z"/><path d="m117.774 445.052h53.627v30h-53.627z" transform="matrix(.5 -.866 .866 .5 -326.123 355.24)"/><path d="m512.117 241.059h-29.773l19.599-26.006-23.958-18.057-33.207 44.063h-56.479l-27.759-67.017 39.937-39.937 54.637 7.675 4.174-29.709-32.247-4.529 21.052-21.052-21.213-21.213-21.053 21.053-4.529-32.249-29.709 4.174 7.675 54.638-39.936 39.936-67.017-27.759v-56.479l44.063-33.209-18.057-23.957-26.006 19.599v-30.965h-30v30.967l-26.006-19.599-18.057 23.957 44.063 33.209v33.209c-78.45 7.569-139.99 73.86-139.99 154.262 0 80.401 61.541 146.692 139.99 154.261v33.202l-44.063 33.208 18.057 23.957 26.006-19.6v30.967h30v-30.967l26.006 19.6 18.057-23.957-44.063-33.208v-56.479l67.017-27.759 39.936 39.936-7.675 54.638 29.709 4.174 4.529-32.249 21.053 21.053 21.213-21.213-21.052-21.052 32.247-4.529-4.174-29.709-54.637 7.675-39.937-39.937 27.759-67.017h56.479l33.207 44.063 23.958-18.057-19.599-26.006h29.773zm-156.29 0h-62.304l44.056-44.055zm-39.461-65.269-44.056 44.056v-62.304zm-184.046 80.273c0-63.844 48.117-116.653 109.99-124.087v248.173c-61.872-7.435-109.99-60.244-109.99-124.086zm139.991 98.512v-62.304l44.056 44.056zm65.268-39.461-44.056-44.055h62.304z"/></g></svg>