<svg id="Layer_1" enable-background="new 0 0 512.032 512.032" height="512" viewBox="0 0 512.032 512.032" width="512" xmlns="http://www.w3.org/2000/svg"><g><path d="m256.017 157.544c-72.629 0-131.717 59.088-131.717 131.716 0 72.629 59.088 131.717 131.717 131.717 72.628 0 131.716-59.088 131.716-131.717-.001-72.628-59.088-131.716-131.716-131.716zm0 233.433c-56.087 0-101.717-45.63-101.717-101.717 0-56.086 45.63-101.716 101.717-101.716 56.086 0 101.716 45.63 101.716 101.716-.001 56.087-45.63 101.717-101.716 101.717z"/><path d="m78.377 160.388h30v69.945h-30z" transform="matrix(.5 -.866 .866 .5 -122.499 178.547)"/><path d="m58.404 368.16h69.945v30h-69.945z" transform="matrix(.866 -.5 .5 .866 -179.071 98.024)"/><path d="m241.017 442.087h30v69.945h-30z"/><path d="m403.655 348.188h30v69.945h-30z" transform="matrix(.5 -.866 .866 .5 -122.499 554.145)"/><path d="m383.683 180.36h69.945v30h-69.945z" transform="matrix(.866 -.5 .5 .866 -41.591 235.503)"/><path d="m142.823 96.828h30v44.712h-30z" transform="matrix(.866 -.5 .5 .866 -38.448 94.881)"/><path d="m37.273 274.26h44.712v30h-44.712z"/><path d="m135.467 444.336h44.711v30h-44.711z" transform="matrix(.5 -.866 .866 .5 -318.885 366.344)"/><path d="m339.21 436.98h30v44.711h-30z" transform="matrix(.866 -.5 .5 .866 -182.213 238.645)"/><path d="m430.048 274.26h44.711v30h-44.711z"/><path d="m331.854 104.184h44.712v30h-44.712z" transform="matrix(.5 -.866 .866 .5 73.887 366.346)"/><path d="m241.017 54.274v82.159h30v-82.159l16.185 14.757 20.213-22.168-51.398-46.863-51.4 46.863 20.213 22.169z"/></g></svg>