<svg id="Layer_1" enable-background="new 0 0 512.032 512.032" height="512" viewBox="0 0 512.032 512.032" width="512" xmlns="http://www.w3.org/2000/svg"><g><path d="m256.016 91.056c-72.628 0-131.716 59.088-131.716 131.717 0 72.628 59.088 131.716 131.716 131.716s131.716-59.089 131.716-131.717-59.087-131.716-131.716-131.716zm0 233.432c-56.086 0-101.716-45.63-101.716-101.716 0-56.087 45.63-101.717 101.716-101.717s101.716 45.63 101.716 101.717c0 56.086-45.629 101.716-101.716 101.716z"/><path d="m58.404 301.672h69.945v30h-69.945z" transform="matrix(.866 -.5 .5 .866 -145.827 89.116)"/><path d="m78.377 93.899h30v69.945h-30z" transform="matrix(.5 -.866 .866 .5 -64.918 145.303)"/><path d="m241.016 0h30v69.945h-30z"/><path d="m383.683 113.872h69.945v30h-69.945z" transform="matrix(.866 -.5 .5 .866 -8.346 226.595)"/><path d="m403.655 281.699h30v69.945h-30z" transform="matrix(.5 -.866 .866 .5 -64.918 520.901)"/><path d="m135.467 377.848h44.712v30h-44.712z" transform="matrix(.5 -.866 .866 .5 -261.305 333.101)"/><path d="m37.273 207.772h44.711v30h-44.711z"/><path d="m142.823 30.341h30v44.711h-30z" transform="matrix(.866 -.5 .5 .866 -5.204 85.972)"/><path d="m331.854 37.696h44.711v30h-44.711z" transform="matrix(.5 -.866 .866 .5 131.467 333.102)"/><path d="m430.047 207.772h44.711v30h-44.711z"/><path d="m339.21 370.492h30v44.712h-30z" transform="matrix(.866 -.5 .5 .866 -148.967 229.732)"/><path d="m271.016 457.758v-82.158h-30v82.158l-16.186-14.757-20.213 22.168 51.399 46.863 51.399-46.863-20.213-22.168z"/></g></svg>