<svg id="Layer_1" enable-background="new 0 0 512.177 512.177" height="512" viewBox="0 0 512.177 512.177" width="512" xmlns="http://www.w3.org/2000/svg"><g><g><path d="m412.644 336.02h-333.856c-43.444 0-78.788-35.344-78.788-78.788 0-20.781 8.021-40.387 22.587-55.205 11.891-12.098 27.047-19.895 43.511-22.549 16.324-46.916 60.581-78.829 111.118-78.829 2.297 0 4.6.067 6.901.202 10.161-20.114 25.19-37.335 43.949-50.242 22.476-15.463 48.824-23.637 76.198-23.637 34.208 0 66.812 12.847 91.808 36.174 22.009 20.54 36.338 47.502 41.064 76.875 43.517 11.017 75.041 50.581 75.041 96.466 0 54.883-44.651 99.533-99.533 99.533zm-235.429-205.371c-40.373 0-75.364 27.324-85.092 66.447l-2.775 11.16-11.499.217c-26.384.497-47.849 22.37-47.849 48.759 0 26.901 21.886 48.788 48.788 48.788h333.856c38.34 0 69.533-31.192 69.533-69.533 0-34.858-26.037-64.493-60.563-68.934l-12.148-1.563-.897-12.216c-1.93-26.262-13.637-50.659-32.965-68.696-19.421-18.125-44.756-28.106-71.339-28.106-42.919 0-81.015 25.726-97.053 65.538l-4.458 11.067-11.786-1.854c-4.535-.713-9.162-1.074-13.753-1.074z"/></g><g><path d="m412.774 418.066-27.111-11.814c-13.421-5.849-28.817-5.847-42.238 0-21.036 9.169-45.168 9.169-66.206 0-13.422-5.849-28.816-5.847-42.238 0-21.036 9.169-45.168 9.169-66.207 0-13.42-5.848-28.816-5.848-42.238 0l-27.11 11.814-11.986-27.502 27.111-11.814c21.039-9.167 45.169-9.169 66.207 0 13.422 5.848 28.817 5.848 42.239 0 21.037-9.167 45.169-9.169 66.206 0 13.422 5.848 28.816 5.848 42.238 0 21.037-9.166 45.169-9.168 66.206 0l27.112 11.814z"/></g><g><path d="m412.774 485.205-27.111-11.814c-13.421-5.848-28.817-5.848-42.238 0-21.036 9.169-45.168 9.169-66.206 0-13.422-5.848-28.816-5.848-42.238 0-21.036 9.169-45.168 9.169-66.207 0-13.42-5.848-28.816-5.848-42.238 0l-27.11 11.814-11.986-27.502 27.111-11.814c21.039-9.167 45.169-9.168 66.207 0 13.422 5.848 28.817 5.848 42.239 0 21.037-9.167 45.169-9.168 66.206 0 13.422 5.848 28.816 5.848 42.238 0 21.037-9.165 45.169-9.167 66.206 0l27.112 11.814z"/></g></g></svg>