<svg id="Layer_1" enable-background="new 0 0 512.172 512.172" height="512" viewBox="0 0 512.172 512.172" width="512" xmlns="http://www.w3.org/2000/svg"><path d="m511.95 161.494c0-3.394-.121-6.871-.369-10.631l-.928-14.01h-23.779l-4.194 8.109c-14.832 28.682-44.072 46.499-76.311 46.499-47.347 0-85.866-38.52-85.866-85.866 0-32.248 17.825-61.492 46.519-76.32l8.113-4.193v-23.777l-14.005-.932c-3.772-.251-7.265-.373-10.674-.373-89.049 0-161.495 72.446-161.495 161.494 0 1.33.022 2.66.055 3.991-3.787-.372-7.605-.579-11.45-.579-29.391 0-57.405 11.038-78.881 31.081-18.528 17.291-30.722 39.878-35.026 64.522-36.879 10.058-63.438 43.913-63.438 83.09 0 47.497 38.642 86.139 86.138 86.139h54.09l-30.31 70.599 27.566 11.836 35.391-82.435h41.892l-30.31 70.6 27.567 11.834 35.39-82.434h41.892l-30.31 70.599 27.566 11.836 35.391-82.435h45.138c37.87 0 68.68-30.81 68.68-68.68 0-18.116-6.992-35.207-19.689-48.124-.917-.933-1.864-1.826-2.824-2.7 58.336-24.716 98.471-82.551 98.471-148.74zm-144.634 238.243h-280.956c-30.955 0-56.138-25.184-56.138-56.139 0-28.143 21.02-52.068 48.894-55.654l12.148-1.563.897-12.215c3.266-44.445 40.781-79.261 85.406-79.261 35.144 0 66.338 21.064 79.47 53.664l4.458 11.066 11.785-1.853c3.694-.581 7.464-.876 11.203-.876 32.882 0 61.38 22.253 69.303 54.115l2.775 11.16 11.499.217c20.917.395 37.935 17.736 37.935 38.657 0 21.331-17.351 38.682-38.679 38.682zm11.09-109.751c-15.342-37.758-52.141-63.078-93.923-63.078-1.463 0-2.929.032-4.395.095-8.714-16.689-21.365-30.994-37.051-41.787-7.416-5.102-15.326-9.271-23.585-12.483-.316-3.735-.491-7.49-.491-11.239 0-60.013 40.406-110.764 95.446-126.472-15.262 19.854-23.904 44.484-23.904 70.573 0 63.889 51.978 115.866 115.866 115.866 26.078 0 50.702-8.637 70.553-23.891-13.11 45.969-50.672 82.088-98.516 92.416z"/></svg>