<svg id="Layer_1" enable-background="new 0 0 511.928 511.928" height="512" viewBox="0 0 511.928 511.928" width="512" xmlns="http://www.w3.org/2000/svg"><g><path d="m361.985 0h-212.042c-27.193 0-49.317 22.124-49.317 49.317v413.293c0 27.193 22.124 49.317 49.317 49.317h212.042c27.193 0 49.317-22.124 49.317-49.317v-413.293c0-27.193-22.124-49.317-49.317-49.317zm-212.042 30h212.042c10.651 0 19.317 8.666 19.317 19.317v355.98h-250.677v-355.98c0-10.651 8.667-19.317 19.318-19.317zm212.042 451.928h-212.042c-10.651 0-19.317-8.666-19.317-19.317v-27.313h110.339v20.999h30v-20.999h110.338v27.313c-.001 10.651-8.667 19.317-19.318 19.317z"/><path d="m187.243 202.94-11.639 34.108 28.393 9.688 14.877-43.6h25.305l-11.571 33.912 28.392 9.688 14.876-43.6h25.305l-11.572 33.912 28.393 9.688 16.706-48.959c14.511-7.723 24.416-23 24.416-40.553 0-19.064-11.8-35.764-28.814-42.606-6.764-25.122-29.868-43.523-56.73-43.523-20.375 0-38.813 10.324-49.467 27.026-19.503 1.101-36.531 12.852-44.611 30.193-15.435 4.974-26.7 19.55-26.7 36.496 0 19.822 15.126 36.177 34.441 38.13zm3.722-46.447 11.498-.217 2.775-11.161c2.501-10.056 11.499-17.079 21.883-17.079 1.186 0 2.379.094 3.547.277l11.788 1.856 4.459-11.068c4.407-10.938 14.873-18.007 26.665-18.007 14.972 0 27.558 11.676 28.652 26.58l.897 12.216 12.148 1.563c7.894 1.016 13.847 7.796 13.847 15.771 0 8.774-7.138 15.912-15.912 15.912h-122.084c-4.591 0-8.326-3.735-8.326-8.326 0-4.5 3.662-8.232 8.163-8.317z"/><path d="m285.965 279.961h63.16v30h-63.16z"/><path d="m162.802 279.961h93.162v30h-93.162z"/><path d="m285.965 338.965h63.16v30h-63.16z"/><path d="m162.802 338.965h93.162v30h-93.162z"/></g></svg>