<svg id="Layer_1" enable-background="new 0 0 512.035 512.035" height="512" viewBox="0 0 512.035 512.035" width="512" xmlns="http://www.w3.org/2000/svg"><path d="m499.924 154.222c0-3.231-.115-6.552-.352-10.148l-.924-14.014h-23.753l-4.194 8.11c-13.967 27.009-41.503 43.787-71.861 43.787-44.585 0-80.858-36.273-80.858-80.858 0-30.367 16.786-57.906 43.806-71.871l8.113-4.192v-23.749l-14.005-.931c-3.608-.24-6.942-.356-10.194-.356-85.038 0-154.221 69.184-154.221 154.222 0 .991.038 1.983.057 2.975-3.357-.305-6.738-.478-10.141-.478-28.121 0-54.925 10.562-75.474 29.738-17.61 16.435-29.24 37.873-33.43 61.272-35.13 9.799-60.381 42.146-60.381 79.556 0 45.55 37.057 82.606 82.606 82.606h53.358l12.787 25.577-32.586 14.95 30.804 61.616 26.833-13.416-16.933-33.868 32.586-14.95-19.952-39.909h76.467l12.787 25.577-32.586 14.95 30.804 61.616 26.833-13.416-16.933-33.868 32.586-14.95-19.952-39.909h70.102c36.401 0 66.015-29.614 66.015-66.015 0-17.413-6.721-33.841-18.926-46.257-.61-.621-1.231-1.227-1.861-1.82 55.13-23.851 92.973-78.774 92.973-141.577zm-138.199 225.67h-267.007c-29.007 0-52.606-23.6-52.606-52.606 0-26.372 19.697-48.792 45.816-52.152l12.148-1.563.897-12.216c3.075-41.852 38.401-74.636 80.423-74.636 33.094 0 62.468 19.836 74.833 50.534l4.458 11.067 11.786-1.854c3.471-.546 7.014-.822 10.531-.822 30.906 0 57.692 20.916 65.139 50.863l2.775 11.16 11.499.217c19.477.367 35.321 16.514 35.321 35.993.002 19.858-16.154 36.015-36.013 36.015zm10.994-104.418c-14.832-35.84-49.913-59.83-89.714-59.83-1.244 0-2.49.024-3.736.072-8.329-15.791-20.353-29.328-35.23-39.563-6.968-4.795-14.39-8.734-22.139-11.785-.272-3.373-.419-6.762-.419-10.146 0-55.908 37.12-103.307 88.013-118.841-13.755 18.674-21.513 41.542-21.513 65.718 0 61.128 49.731 110.858 110.858 110.858 24.167 0 47.028-7.753 65.698-21.5-12.869 42.204-47.661 75.251-91.818 85.017z"/></svg>