<svg id="Layer_1" enable-background="new 0 0 512.006 512.006" height="512" viewBox="0 0 512.006 512.006" width="512" xmlns="http://www.w3.org/2000/svg"><g><path d="m424.868 368.564v-204.556h-30v204.556c-16.898 6.147-28.999 22.367-28.999 41.363 0 24.261 19.738 43.999 43.999 43.999s43.999-19.738 43.999-43.999c0-18.996-12.101-35.216-28.999-41.363zm-15 55.362c-7.719 0-13.999-6.28-13.999-13.999s6.28-13.999 13.999-13.999 13.999 6.28 13.999 13.999-6.28 13.999-13.999 13.999z"/><path d="m481.872 337.57v-186.563c0-39.703-32.301-72.004-72.004-72.004-5.936 0-11.7.736-17.222 2.097-19.189-23.369-43.191-42.835-69.995-56.643-31.059-16-66.063-24.457-101.227-24.457-59.129 0-114.719 23.026-156.529 64.837-41.811 41.811-64.836 97.4-64.836 156.529s23.026 114.719 64.836 156.529 97.4 64.836 156.529 64.836c30.149 0 59.96-6.169 87.448-17.977 7.134 48.696 48.837 86.535 99.548 87.241.482.006.965.01 1.446.01h.001c27.265 0 52.901-10.619 72.18-29.897 19.28-19.28 29.898-44.915 29.898-72.182.002-27.259-10.88-53.252-30.073-72.356zm-172.96-286.444c21.119 10.88 40.239 25.816 56.026 43.675-16.487 13.207-27.074 33.487-27.074 56.206v186.565c-14.726 14.664-24.583 33.437-28.355 53.701-12.426 6.448-25.526 11.505-39.038 15.078l14.738-29.706-15.977-96.053-74.596-21.213-5.447-20.505 56.156-48.498 7.913-87.843-79.317-66.569c15.189-3.891 31.098-5.964 47.483-5.964 30.84 0 60.276 7.107 87.488 21.126zm-278.44 182.644 77.168 56.434-9.642 77.276c-38.567-32.628-64.086-80.209-67.526-133.71zm95.314 153.299 13.808-110.662-108.037-79.009c8.351-66.543 51.007-122.558 109.644-149.746l80.773 67.792-5.419 60.157-61.178 52.836 14.644 55.132 72.734 20.684 11.269 67.748-19.999 40.312c-4.188.276-8.39.418-12.601.418-34.814 0-67.484-9.349-95.638-25.662zm335.049 73.826c-13.856 13.856-32.379 21.409-51.998 21.104-39.674-.552-71.543-33.301-71.042-73.003.259-20.554 9.333-40.076 24.893-53.563l5.176-4.485v-199.94c0-23.161 18.843-42.004 42.004-42.004s42.003 18.843 42.003 42.004v199.94l5.176 4.485c15.824 13.715 24.899 33.577 24.899 54.494.001 19.253-7.497 37.354-21.111 50.968z"/></g></svg>