<svg id="Layer_1" enable-background="new 0 0 512.012 512.012" height="512" viewBox="0 0 512.012 512.012" width="512" xmlns="http://www.w3.org/2000/svg"><g><path d="m512.012 399.626v-359.953h-512.012v359.953h206.004v5.214c0 20.677-16.822 37.499-37.499 37.499h-10.5v30h196.002v-30h-10.5c-20.677 0-37.499-16.822-37.499-37.499v-5.214zm-482.012-329.953h452.012v299.953h-452.012zm257.408 372.666h-62.803c7.197-10.732 11.399-23.635 11.399-37.499v-5.214h40.004v5.214c0 13.864 4.203 26.767 11.4 37.499z"/><path d="m248.324 248.525c-4.485-17.009-16.232-31.059-31.583-38.764-8.224-30.082-35.962-51.821-67.836-51.821-38.781 0-70.332 31.551-70.332 70.332 0 12.778 3.468 25.167 9.911 35.972-13.994 6.049-23.87 20.027-23.87 36.089 0 21.665 17.625 39.29 39.291 39.29h127.133c26.021 0 47.19-21.17 47.19-47.19.001-19.702-12.262-36.948-29.904-43.908zm-99.418-60.585c12.956 0 24.718 6.263 32.151 16.047-17.574 2.516-33.025 12.556-42.449 27.501-10.282.521-19.905 3.92-27.981 9.494-1.349-4.061-2.052-8.346-2.052-12.709-.001-22.241 18.092-40.333 40.331-40.333zm82.133 121.682h-127.134c-5.123 0-9.291-4.168-9.291-9.29 0-5.023 4.086-9.188 9.108-9.282l11.499-.217 2.775-11.161c2.673-10.748 12.291-18.255 23.39-18.255 1.269 0 2.544.1 3.789.296l11.789 1.857 4.459-11.07c4.684-11.627 15.809-19.14 28.343-19.14 15.914 0 29.292 12.411 30.456 28.255l.897 12.215 12.148 1.563c8.529 1.098 14.96 8.423 14.96 17.039.002 9.478-7.709 17.19-17.188 17.19z"/><path d="m64.614 99.677h191.392v30h-191.392z"/><path d="m316.009 169.614h131.389v30h-131.389z"/><path d="m407.395 99.677h40.003v30h-40.003z"/><path d="m337.391 99.677h40.003v30h-40.003z"/><path d="m316.009 229.617h131.389v30h-131.389z"/><path d="m316.009 289.621h131.389v30h-131.389z"/></g></svg>