<svg id="Layer_1" enable-background="new 0 0 512.002 512.002" height="512" viewBox="0 0 512.002 512.002" width="512" xmlns="http://www.w3.org/2000/svg"><g><path d="m472.848 335.368c-11.462-4.995-23.612-7.527-36.114-7.527-12.503 0-24.653 2.532-36.114 7.527-7.658 3.337-15.777 5.029-24.13 5.029-8.354 0-16.472-1.692-24.13-5.029-11.462-4.995-23.612-7.527-36.114-7.527-12.503 0-24.653 2.532-36.114 7.527-7.658 3.337-15.777 5.029-24.13 5.029-8.354 0-16.472-1.692-24.13-5.029-11.462-4.995-23.612-7.527-36.114-7.527-12.503 0-24.653 2.532-36.114 7.527-7.658 3.337-15.777 5.029-24.13 5.029-8.354 0-16.472-1.692-24.13-5.029-11.462-4.995-23.612-7.527-36.114-7.527-12.503 0-24.653 2.532-36.114 7.527l-39.13 17.051v159.583h511.953v-159.583zm-421.709 27.502c7.658-3.337 15.776-5.029 24.13-5.029 8.353 0 16.472 1.692 24.13 5.029 11.461 4.995 23.611 7.527 36.114 7.527 12.502 0 24.652-2.532 36.114-7.527 7.658-3.337 15.776-5.029 24.13-5.029 8.353 0 16.472 1.692 24.13 5.029 11.461 4.995 23.611 7.527 36.114 7.527 12.502 0 24.652-2.532 36.114-7.527 7.658-3.337 15.776-5.029 24.13-5.029 8.353 0 16.472 1.692 24.13 5.029 11.461 4.995 23.611 7.527 36.114 7.527 12.502 0 24.652-2.532 36.114-7.527 7.658-3.337 15.776-5.029 24.13-5.029 8.353 0 16.472 1.692 24.13 5.029l21.114 9.201v37.28l-9.13-3.979c-22.953-10.002-49.279-10.001-72.229.001-15.334 6.682-32.925 6.681-48.261-.001-22.95-10.002-49.277-10.001-72.227.001-15.336 6.682-32.926 6.681-48.262-.001-22.951-10.002-49.277-10.001-72.227.001-15.336 6.682-32.927 6.681-48.261-.001-22.953-10.002-49.279-10-72.229 0l-9.13 3.979v-37.28zm-21.115 119.132v-39.927l21.114-9.201c15.333-6.682 32.925-6.681 48.26.001 22.951 10.002 49.277 10.001 72.229-.001 15.333-6.682 32.925-6.681 48.26.001 22.951 10.002 49.277 10.001 72.229-.001 15.333-6.682 32.925-6.681 48.26.001 22.951 10.002 49.277 10.001 72.229-.001 15.335-6.681 32.925-6.683 48.26 0l21.114 9.201v39.927z"/><path d="m255.989 242.631c66.894 0 121.315-54.422 121.315-121.315 0-5.67-.402-11.396-1.194-17.018l-1.82-12.906h-25.822l-2.642 11.694c-2.94 13.015-10.313 24.838-20.76 33.292-10.742 8.692-23.741 13.287-37.594 13.287-32.992 0-59.833-26.841-59.833-59.833 0-13.853 4.595-26.852 13.287-37.594 8.454-10.446 20.277-17.819 33.292-20.76l11.694-2.642v-25.821l-12.906-1.82c-5.621-.793-11.347-1.195-17.017-1.195-66.894 0-121.315 54.422-121.315 121.315s54.422 121.316 121.315 121.316zm-44.185-201.211c-9.188 14.374-14.164 31.235-14.164 48.412 0 49.534 40.299 89.833 89.833 89.833 17.177 0 34.038-4.977 48.412-14.164-15.592 28.082-45.562 47.13-79.896 47.13-50.352 0-91.315-40.964-91.315-91.315 0-34.335 19.048-64.304 47.13-79.896z"/><path d="m124.019 253.299-20.213-22.17-17.603 16.049v-86.14h-30v86.14l-17.601-16.048-20.213 22.168 52.814 48.154z"/><path d="m425.798 215.284v86.14h30v-86.14l17.601 16.048 20.213-22.168-52.814-48.154-52.815 48.154 20.213 22.168z"/></g></svg>