<svg id="Layer_1" enable-background="new 0 0 512.177 512.177" height="512" viewBox="0 0 512.177 512.177" width="512" xmlns="http://www.w3.org/2000/svg"><g><g><path d="m412.644 332.262h-333.857c-43.443 0-78.787-35.344-78.787-78.787 0-20.781 8.021-40.387 22.587-55.205 11.892-12.098 27.047-19.895 43.511-22.549 16.322-46.916 60.579-78.829 111.117-78.829 2.297 0 4.601.067 6.901.202 10.161-20.114 25.19-37.335 43.949-50.242 22.476-15.463 48.824-23.637 76.198-23.637 34.207 0 66.812 12.847 91.807 36.174 22.009 20.539 36.339 47.501 41.064 76.874 43.518 11.018 75.042 50.582 75.042 96.467.001 54.881-44.65 99.532-99.532 99.532zm-235.429-205.37c-40.373 0-75.364 27.324-85.092 66.446l-2.775 11.161-11.499.217c-26.384.498-47.849 22.37-47.849 48.759 0 26.901 21.886 48.787 48.787 48.787h333.856c38.341 0 69.533-31.192 69.533-69.532 0-34.858-26.037-64.493-60.564-68.936l-12.147-1.563-.898-12.215c-1.93-26.262-13.637-50.658-32.965-68.695-19.421-18.125-44.756-28.106-71.338-28.106-42.92 0-81.016 25.726-97.053 65.538l-4.459 11.067-11.786-1.854c-4.533-.713-9.16-1.074-13.751-1.074z"/></g><g><path d="m213.512 488.961-24.961-16.641 13.046-19.569c4.556-6.834 4.556-15.665 0-22.499-11.296-16.942-11.296-38.838 0-55.78l13.047-19.57 24.961 16.642-13.047 19.57c-4.556 6.833-4.556 15.664 0 22.498 11.296 16.942 11.296 38.838 0 55.78z"/></g><g><path d="m129.49 488.961-24.961-16.641 13.046-19.569c4.556-6.834 4.556-15.665 0-22.499-11.296-16.942-11.296-38.838 0-55.78l13.047-19.57 24.961 16.642-13.047 19.57c-4.556 6.833-4.556 15.664 0 22.498 11.296 16.942 11.296 38.838 0 55.78z"/></g><g><path d="m297.532 488.962-24.961-16.642 13.047-19.57c4.556-6.833 4.556-15.664 0-22.498-11.296-16.942-11.296-38.838 0-55.78l13.047-19.57 24.961 16.642-13.047 19.57c-4.556 6.833-4.556 15.664 0 22.498 11.296 16.942 11.296 38.838 0 55.78z"/></g><g><path d="m381.554 488.962-24.961-16.642 13.047-19.57c4.556-6.833 4.556-15.664 0-22.498-11.296-16.942-11.296-38.838 0-55.78l13.046-19.569 24.961 16.641-13.046 19.569c-4.556 6.834-4.556 15.665 0 22.499 11.296 16.942 11.296 38.838 0 55.78z"/></g></g></svg>