<svg id="Layer_1" enable-background="new 0 0 512.001 512.001" height="512" viewBox="0 0 512.001 512.001" width="512" xmlns="http://www.w3.org/2000/svg"><path d="m474.799 323.119-41.812 17.745-25.735-14.858 35.286-16.775-12.88-27.094-53.96 25.652-29.415-16.983 54.187-34.806-54.188-34.804 29.416-16.983 53.959 25.652 12.881-27.094-35.287-16.775 25.735-14.858 41.813 17.745 11.72-27.616-20.999-8.912 19.684-11.365-15-25.98-19.683 11.364 2.781-22.642-29.776-3.658-5.538 45.083-25.735 14.858 3.116-38.946-29.904-2.393-4.765 59.556-29.415 16.983-3.047-64.33-57.238 29.527v-33.966l49.195-33.904-17.024-24.702-32.171 22.171v-29.716l36.273-27.338-18.056-23.958-18.217 13.729v-22.728h-30v22.728l-18.217-13.73-18.057 23.958 36.274 27.339v29.716l-32.17-22.171-17.024 24.702 49.194 33.903v33.966l-57.234-29.525-3.048 64.329-29.415-16.983-4.765-59.557-29.904 2.393 3.116 38.947-25.735-14.858-5.539-45.083-29.776 3.658 2.782 22.642-19.685-11.364-15 25.98 19.684 11.365-20.999 8.912 11.72 27.616 41.813-17.745 25.735 14.858-35.287 16.775 12.881 27.094 53.96-25.652 29.416 16.983-54.189 34.804 54.188 34.804-29.415 16.983-53.96-25.652-12.88 27.095 35.286 16.775-25.735 14.858-41.813-17.745-11.72 27.616 20.999 8.912-19.683 11.364 15 25.98 19.684-11.364-2.782 22.642 29.776 3.658 5.539-45.083 25.735-14.858-3.116 38.947 29.904 2.393 4.765-59.557 29.415-16.983 3.047 64.33 57.235-29.526v33.966l-49.195 33.904 17.024 24.702 32.171-22.171v29.716l-36.273 27.338 18.057 23.958 18.216-13.729v22.728h30v-22.728l18.217 13.73 18.057-23.958-36.274-27.339v-29.716l32.17 22.172 17.024-24.702-49.194-33.904v-33.967l57.235 29.525 3.047-64.329 29.416 16.983 4.765 59.556 29.904-2.393-3.116-38.946 25.735 14.858 5.538 45.083 29.776-3.658-2.781-22.642 19.683 11.364 15-25.98-19.683-11.364 20.999-8.912zm-129.841-67.119-27.909 17.926-31.049-17.926 31.048-17.926zm-44.479-77.039 1.57 33.133-31.049 17.926v-35.851zm-88.957 0 29.478 15.208v35.851l-31.048-17.926zm-44.479 77.039 27.909-17.926 31.049 17.926-31.048 17.926zm44.479 77.04-1.57-33.133 31.048-17.926v35.851zm88.957 0-29.479-15.208v-35.851l31.048 17.926z"/></svg>