<svg id="Layer_1" enable-background="new 0 0 511.941 511.941" height="512" viewBox="0 0 511.941 511.941" width="512" xmlns="http://www.w3.org/2000/svg"><g><path d="m0 232.605h46.334v30h-46.334z"/><path d="m25.457 327.611h46.334v30h-46.334z" transform="matrix(.866 -.5 .5 .866 -164.792 70.214)"/><path d="m354.565 137.6h46.333v30h-46.333z" transform="matrix(.866 -.5 .5 .866 -25.693 209.312)"/><path d="m285.016 68.051h46.334v30h-46.334z" transform="matrix(.5 -.866 .866 .5 82.166 308.419)"/><path d="m198.178 34.428h30v46.333h-30z"/><path d="m103.172 59.884h30v46.334h-30z" transform="matrix(.866 -.5 .5 .866 -25.694 70.214)"/><path d="m33.624 129.433h30v46.333h-30z" transform="matrix(.5 -.866 .866 .5 -107.844 118.41)"/><path d="m450.243 312.306c-4.239-23.937-16.112-45.869-34.118-62.673-17.401-16.239-39.202-26.41-62.517-29.392-5.848-30.153-21.3-57.701-44.311-78.589-26.359-23.926-60.495-37.103-96.119-37.103-78.881 0-143.056 64.174-143.056 143.056 0 41.001 17.788 79.77 47.754 106.642-3.929 2.594-7.617 5.609-10.99 9.042-12.417 12.632-19.255 29.346-19.255 47.062 0 37.034 30.129 67.164 67.163 67.164h273.019c46.389 0 84.129-37.74 84.129-84.128-.001-38.173-25.816-71.17-61.699-81.081zm-350.121-64.701c0-62.339 50.717-113.056 113.056-113.056 28.153 0 55.129 10.411 75.956 29.316 16.788 15.239 28.488 34.952 33.824 56.62-17.058 2.455-33.29 8.77-47.637 18.641-15.227 10.477-27.52 24.343-36.015 40.521-1.341-.054-2.682-.082-4.02-.082-39.542 0-74.502 23.235-90.236 58.244-28.001-21.218-44.928-54.65-44.928-90.204zm327.691 199.909h-273.019c-20.492 0-37.163-16.671-37.163-37.164 0-20.101 16.351-36.762 36.447-37.141l11.499-.217 2.775-11.161c7.651-30.772 35.176-52.264 66.934-52.264 3.614 0 7.254.285 10.818.846l11.787 1.854 4.458-11.067c12.697-31.518 42.855-51.884 76.833-51.884 43.144 0 79.413 33.66 82.57 76.629l.897 12.215 12.148 1.563c26.876 3.457 47.143 26.526 47.143 53.662.001 29.847-24.281 54.129-54.127 54.129z"/></g></svg>