<svg id="Layer_1" enable-background="new 0 0 511.968 511.968" height="512" viewBox="0 0 511.968 511.968" width="512" xmlns="http://www.w3.org/2000/svg"><g><path d="m271.495 137.141h30v30.002h-30z"/><path d="m326.499 157.143h30v30.001h-30z"/><path d="m458.447 300.978c-3.926-20.604-14.287-39.461-29.838-53.974-1.208-1.128-2.444-2.218-3.699-3.279 3.035-11.703 4.575-23.758 4.575-35.972 0-78.874-64.168-143.042-143.042-143.042-73.097 0-133.554 55.115-142.02 125.97-6.981-1.915-14.301-2.926-21.812-2.926-20.767 0-40.562 7.8-55.737 21.962-12.313 11.491-20.667 26.295-24.147 42.505-25.016 8.232-42.727 31.859-42.727 59.037 0 34.272 27.882 62.155 62.154 62.155h81.06c-1.052 4.479-1.606 9.107-1.606 13.817 0 33.099 26.928 60.026 60.026 60.026h235.663c41.173 0 74.67-33.497 74.67-74.67.001-33.438-22.317-62.402-53.52-71.609zm-172.004-206.268c62.332 0 113.042 50.71 113.042 113.042 0 6.628-.586 13.191-1.717 19.646-11.634-4.66-24.149-7.115-36.974-7.115-36.978 0-70.189 20.093-87.431 52.036-.75-.019-1.501-.029-2.25-.029-3.732 0-7.414.246-11.038.702-11.124-26.438-37.082-44.115-66.531-44.139-5.226-9.168-12.084-17.083-20.114-23.459 1.261-61.247 51.469-110.684 113.013-110.684zm-256.443 216.549c0-16.119 12.036-29.822 27.998-31.875l12.148-1.563.897-12.216c1.972-26.833 24.623-47.852 51.568-47.852 21.221 0 40.057 12.72 47.987 32.405l4.458 11.066 11.785-1.853c2.189-.344 4.424-.519 6.641-.519 16.201 0 30.597 9.127 37.678 23.059-18.891 9.677-33.954 26.074-41.763 46.551-10.74 2.215-20.653 7.34-28.775 14.951h-98.468c-17.73.001-32.154-14.424-32.154-32.154zm407.298 105.998h-235.663c-16.557 0-30.026-13.47-30.026-30.026 0-16.24 13.21-29.701 29.447-30.007l11.499-.217 2.775-11.161c6.377-25.646 29.316-43.556 55.784-43.556 3.013 0 6.048.237 9.021.705l11.786 1.853 4.458-11.066c10.645-26.425 35.93-43.499 64.416-43.499 36.171 0 66.579 28.218 69.226 64.242l.897 12.216 12.148 1.563c22.178 2.853 38.902 21.891 38.902 44.284 0 24.631-20.039 44.669-44.67 44.669z"/></g></svg>