<svg id="Layer_1" enable-background="new 0 0 512.177 512.177" height="512" viewBox="0 0 512.177 512.177" width="512" xmlns="http://www.w3.org/2000/svg"><g><path d="m100.836 432.164h84.644v30h-84.644z" transform="matrix(.395 -.919 .919 .395 -324.215 402.303)"/><path d="m180.362 432.164h84.644v30h-84.644z" transform="matrix(.395 -.919 .919 .395 -276.062 475.379)"/><path d="m259.889 432.164h84.644v30h-84.644z" transform="matrix(.395 -.919 .919 .395 -227.909 548.455)"/><path d="m339.415 432.164h84.644v30h-84.644z" transform="matrix(.395 -.919 .919 .395 -179.756 621.531)"/><path d="m437.135 133.255c-4.726-29.373-19.055-56.335-41.064-76.875-24.995-23.327-57.6-36.174-91.807-36.174-27.374 0-53.723 8.174-76.198 23.637-18.759 12.907-33.789 30.128-43.949 50.242-2.301-.135-4.604-.202-6.901-.202-50.537 0-94.794 31.913-111.118 78.829-16.464 2.655-31.62 10.452-43.511 22.549-14.566 14.818-22.587 34.424-22.587 55.205 0 43.443 35.344 78.788 78.787 78.788h36.963l-15.123 35.225 27.567 11.835 20.203-47.06h46.879l-15.123 35.225 27.566 11.835 20.204-47.06h46.879l-15.123 35.225 27.566 11.835 20.204-47.06h46.879l-15.123 35.225 27.566 11.835 20.204-47.06h25.667c54.883 0 99.533-44.65 99.533-99.533.002-45.885-31.523-85.449-75.04-96.466zm-24.491 165.999h-333.857c-26.901 0-48.787-21.886-48.787-48.788 0-26.389 21.465-48.262 47.849-48.759l11.499-.217 2.775-11.161c9.729-39.123 44.72-66.446 85.092-66.446 4.591 0 9.218.362 13.75 1.075l11.786 1.854 4.458-11.067c16.038-39.813 54.133-65.539 97.053-65.539 26.582 0 51.918 9.982 71.339 28.106 19.328 18.038 31.034 42.434 32.964 68.696l.897 12.216 12.148 1.563c34.527 4.441 60.564 34.076 60.564 68.934.003 38.341-31.19 69.533-69.53 69.533z"/></g></svg>