<svg id="Layer_1" enable-background="new 0 0 512 512" height="512" viewBox="0 0 512 512" width="512" xmlns="http://www.w3.org/2000/svg"><g><path d="m115.003 270.448h21.672c28.818 33.692 71.617 55.087 119.324 55.087 60.669 0 113.407-34.594 139.536-85.089h58.799v-30h-47.024c3.701-13.347 5.689-27.4 5.689-41.91 0-86.569-70.43-156.999-157-156.999s-156.998 70.431-156.998 157c0 4.006.153 7.976.449 11.908h-25.115v30h30.354c2.906 10.479 6.87 20.522 11.776 30.004h-1.462c-24.814 0-45.002 20.188-45.002 45.002s20.188 45.002 45.002 45.002h21.997v-30h-21.997c-8.272 0-15.002-6.73-15.002-15.002s6.73-15.003 15.002-15.003zm13.998-101.911c0-70.027 56.972-126.999 126.999-126.999 70.028 0 127 56.972 127 126.999 0 14.68-2.512 28.782-7.115 41.91h-36.882v30h21.617c-22.925 33.25-61.267 55.089-104.62 55.089-28.342 0-54.543-9.335-75.696-25.087h78.694c24.814 0 45.002-20.188 45.002-45.002s-20.188-45.002-45.002-45.002h-129.434c-.367-3.922-.563-7.892-.563-11.908zm7.114 41.908h122.883c8.272 0 15.002 6.73 15.002 15.002s-6.729 15.002-15.002 15.002h-107.616c-6.344-9.202-11.506-19.276-15.267-30.004z"/><path d="m392.335 290.451h119.665v30h-119.665z"/><path d="m398.999 410.459h-198.999c-8.272 0-15.001-6.73-15.001-15.002s6.729-15.002 15.001-15.002h110v-30h-110c-24.814 0-45.001 20.188-45.001 45.002s20.188 45.002 45.001 45.002h198.998c8.272 0 15.002 6.73 15.002 15.002s-6.729 15.001-15.002 15.001h-63.998v30h63.998c24.814 0 45.002-20.188 45.002-45.001s-20.187-45.002-45.001-45.002z"/><path d="m27.667 380.457h92.329v30h-92.329z"/><path d="m349.665 350.455h70.005v30h-70.005z"/><path d="m256 470.463h48.999v30h-48.999z"/><path d="m0 180.445h44.333v30h-44.333z"/></g></svg>