<svg id="Layer_1" enable-background="new 0 0 511.918 511.918" height="512" viewBox="0 0 511.918 511.918" width="512" xmlns="http://www.w3.org/2000/svg"><g><g><path d="m255.959 511.918c-68.369 0-132.646-26.625-180.99-74.969s-74.969-112.621-74.969-180.99 26.625-132.646 74.969-180.99c48.344-48.344 112.621-74.969 180.99-74.969 11.953 0 24.037.848 35.916 2.521l12.909 1.817v26.84l-11.694 2.642c-33.645 7.602-64.2 26.647-86.036 53.629-22.469 27.764-34.345 61.359-34.345 97.155 0 85.249 69.355 154.604 154.604 154.604 35.795 0 69.391-11.876 97.155-34.345 26.982-21.836 46.028-52.391 53.629-86.036l2.642-11.694h26.84l1.818 12.908c1.673 11.878 2.521 23.962 2.521 35.917 0 68.369-26.625 132.646-74.969 180.99s-112.621 74.97-180.99 74.97zm-33.004-479.54c-47.83 6.958-91.977 29.008-126.772 63.804-42.679 42.678-66.183 99.421-66.183 159.777s23.504 117.099 66.182 159.777 99.421 66.182 159.777 66.182 117.099-23.504 159.777-66.182c34.795-34.796 56.846-78.943 63.804-126.773-10.061 14.668-22.241 27.925-36.2 39.222-32.69 26.455-73.896 41.025-116.027 41.025-101.792 0-184.604-82.813-184.604-184.604 0-42.131 14.57-83.337 41.025-116.027 11.296-13.96 24.553-26.141 39.221-36.201z"/></g><g><path d="m389.292 92.589h30v30.002h-30z"/></g><g><path d="m278.625 138.64h30v30.002h-30z"/></g><g><path d="m360.625 207.229h30v30.002h-30z"/></g></g></svg>